STARTFONT 2.1
COMMENT CVS:Version $Id 1.5
COMMENT
COMMENT (C) CENA/J.L. Vinot, 2002, CENA (Centre d'Etudes de la Navigation Aťrienne)
COMMENT This software is free software; you can redistribute it and/or modify it 
COMMENT under the terms of the GNU Lesser General Public License as published by the Free Software Foundation: 
COMMENT either version 2 of the License, or (at your option) any later version.
COMMENT 
COMMENT This software is distributed in the hope that it will be useful, but WITHOUT ANY WARRANTY; 
COMMENT without even the implied warranty of MERCHANTABILITY or FITNESS FOR A PARTICULAR PURPOSE.  
COMMENT See the GNU Lesser General Public License for more details.
COMMENT 
COMMENT You should have received a copy of the GNU Lesser General Public License along with this software; 
COMMENT if not, write to the Free Software Foundation, Inc., 59 Temple Place - Suite 330, Boston, MA  02111-1307, USA.
COMMENT Please refer to http://www.gnu.org/copyleft/gpl.html
COMMENT 
COMMENT This font has been originally designed by CENA/France for the specific needs of Air Traffic Control. 
COMMENT For example, it must offer good legibility and avoid any confusion between character shapes. 
COMMENT CENA would like to preserve its qualities. If you have any specific need, you can modify this font, 
COMMENT but we would like you to change its name to avoid any confusion between your new font and the original one designed by CENA.
COMMENT Note however, that as implied in the LGPL licence, you must credit CENA for the original work. 
COMMENT Finally, CENA would appreciate it if you send back any enhancement or extension made to the original work. 
COMMENT This statement must be fully included with any further distribution of the font.
COMMENT 
COMMENT to contact us: email to:  pii-contact@cena.fr
COMMENT write to: CENA, 7 avenue Edouard Belin, 31400 Toulouse, France 
FONT -CenaPii-Bleriot Radar-Medium-R-Normal--24-240-75-75-P-139-ISO8859-15
SIZE 24 72 72

STARTCHAR gcid14
ENCODING 20
SWIDTH 625 0
DWIDTH 15 0
BBX 12 3 1 7
BITMAP
FFF0
FFF0
FFF0
ENDCHAR
STARTCHAR gcid15
ENCODING 21
SWIDTH 666 0
DWIDTH 16 0
BBX 14 14 1 2
BITMAP
6000
F000
7800
3C00
1E04
0F0C
079C
03FC
01FC
00FC
01FC
03FC
07FC
0FFC
ENDCHAR
STARTCHAR gcid16
ENCODING 22
SWIDTH 666 0
DWIDTH 16 0
BBX 14 14 1 0
BITMAP
0FFC
07FC
03FC
01FC
01FC
03FC
07BC
0F1C
1E0C
3C04
7800
F000
E000
4000
ENDCHAR
STARTCHAR space
ENCODING 32
SWIDTH 666 0
DWIDTH 16 0
BBX 0 0 0 0
BITMAP
ENDCHAR
STARTCHAR exclam
ENCODING 33
SWIDTH 416 0
DWIDTH 10 0
BBX 3 17 2 0
BITMAP
E0
E0
E0
E0
E0
E0
E0
E0
E0
E0
E0
40
00
00
E0
E0
E0
ENDCHAR
STARTCHAR quotedbl
ENCODING 34
SWIDTH 416 0
DWIDTH 10 0
BBX 6 5 2 12
BITMAP
CC
CC
CC
CC
CC
ENDCHAR
STARTCHAR numbersign
ENCODING 35
SWIDTH 708 0
DWIDTH 17 0
BBX 15 14 1 1
BITMAP
039C
0318
0318
3FFE
3FFC
0630
0630
0E70
0C60
7FFC
FFFC
18C0
18C0
39C0
ENDCHAR
STARTCHAR dollar
ENCODING 36
SWIDTH 625 0
DWIDTH 15 0
BBX 12 22 2 -2
BITMAP
0600
0600
1F80
7FC0
76E0
E660
E620
E600
F600
7E00
3F00
0FC0
07E0
06F0
0670
8670
C670
F6E0
7FE0
1F80
0600
0600
ENDCHAR
STARTCHAR percent
ENCODING 37
SWIDTH 750 0
DWIDTH 18 0
BBX 16 17 1 0
BITMAP
7818
FC38
CC30
CC70
CC60
FCE0
78C0
01C0
0180
0380
031E
073F
0633
0E33
0C33
1C3F
181E
ENDCHAR
STARTCHAR ampersand
ENCODING 38
SWIDTH 791 0
DWIDTH 19 0
BBX 17 17 1 0
BITMAP
0F8000
1FC000
38E000
38E000
3CE000
1FC000
0F8000
1F0000
3F8000
73C000
61E600
E0FE00
E07C00
F03C00
78FE00
7FEF00
1F8780
ENDCHAR
STARTCHAR quotesingle
ENCODING 39
SWIDTH 250 0
DWIDTH 6 0
BBX 2 5 2 12
BITMAP
C0
C0
C0
C0
C0
ENDCHAR
STARTCHAR parenleft
ENCODING 40
SWIDTH 416 0
DWIDTH 10 0
BBX 7 22 2 -4
BITMAP
0E
1C
38
30
70
70
60
E0
E0
E0
E0
E0
E0
E0
E0
60
70
70
30
38
1C
0E
ENDCHAR
STARTCHAR parenright
ENCODING 41
SWIDTH 416 0
DWIDTH 10 0
BBX 7 22 1 -4
BITMAP
E0
70
38
18
1C
1C
0C
0E
0E
0E
0E
0E
0E
0E
0E
0C
1C
1C
18
38
70
E0
ENDCHAR
STARTCHAR asterisk
ENCODING 42
SWIDTH 500 0
DWIDTH 12 0
BBX 10 9 1 8
BITMAP
0C00
CCC0
EDC0
7F80
1E00
7F80
EDC0
CCC0
0C00
ENDCHAR
STARTCHAR plus
ENCODING 43
SWIDTH 583 0
DWIDTH 14 0
BBX 11 10 1 1
BITMAP
0E00
0E00
0E00
0E00
FFE0
FFE0
0E00
0E00
0E00
0E00
ENDCHAR
STARTCHAR comma
ENCODING 44
SWIDTH 416 0
DWIDTH 10 0
BBX 4 8 3 -4
BITMAP
60
F0
F0
E0
E0
C0
80
80
ENDCHAR
STARTCHAR hyphen
ENCODING 45
SWIDTH 583 0
DWIDTH 14 0
BBX 9 3 2 5
BITMAP
FF80
FF80
FF80
ENDCHAR
STARTCHAR period
ENCODING 46
SWIDTH 583 0
DWIDTH 14 0
BBX 4 4 3 0
BITMAP
60
F0
F0
60
ENDCHAR
STARTCHAR slash
ENCODING 47
SWIDTH 541 0
DWIDTH 13 0
BBX 13 21 0 -2
BITMAP
0038
0030
0070
0060
00E0
00C0
01C0
0180
0380
0300
0700
0600
0E00
0C00
1C00
1800
3800
3000
7000
6000
E000
ENDCHAR
STARTCHAR zero
ENCODING 48
SWIDTH 666 0
DWIDTH 16 0
BBX 13 17 2 0
BITMAP
0F80
3FE0
78F0
7070
E1B8
E1B8
E338
E338
E638
E638
EC38
EC38
E038
7070
78F0
3FE0
0F80
ENDCHAR
STARTCHAR one
ENCODING 49
SWIDTH 583 0
DWIDTH 14 0
BBX 9 17 2 0
BITMAP
0180
0380
0780
0F80
1F80
3B80
7380
E380
4380
0380
0380
0380
0380
0380
0380
0380
0380
ENDCHAR
STARTCHAR two
ENCODING 50
SWIDTH 666 0
DWIDTH 16 0
BBX 12 17 3 0
BITMAP
1F00
7FC0
71C0
E0E0
00E0
00E0
00E0
01C0
03C0
0780
0F00
1E00
3C00
7800
F000
FFF0
FFF0
ENDCHAR
STARTCHAR three
ENCODING 51
SWIDTH 666 0
DWIDTH 16 0
BBX 12 17 2 0
BITMAP
7FE0
7FE0
01C0
0380
0700
0E00
1F00
1FC0
03E0
00E0
0070
0070
0070
E070
F0E0
7FE0
1F80
ENDCHAR
STARTCHAR four
ENCODING 52
SWIDTH 666 0
DWIDTH 16 0
BBX 14 17 2 0
BITMAP
0380
0700
0700
0E00
0E00
1C10
1C30
3870
3870
7070
7070
FFFC
FFFC
0070
0070
0070
0070
ENDCHAR
STARTCHAR five
ENCODING 53
SWIDTH 666 0
DWIDTH 16 0
BBX 12 17 2 0
BITMAP
7FC0
7FC0
7000
7000
7000
7F00
7FC0
61E0
00E0
0070
0070
0070
0070
60E0
F1E0
7FC0
1F00
ENDCHAR
STARTCHAR six
ENCODING 54
SWIDTH 666 0
DWIDTH 16 0
BBX 13 17 2 0
BITMAP
0700
0E00
1C00
3800
3800
7000
77C0
FFF0
F870
F038
E038
E038
E038
E070
70F0
7FE0
1F80
ENDCHAR
STARTCHAR seven
ENCODING 55
SWIDTH 625 0
DWIDTH 15 0
BBX 13 17 2 0
BITMAP
FFF8
FFF0
0070
00E0
00C0
01C0
0380
0380
0700
0700
0700
0E00
0E00
0E00
0E00
0E00
0E00
ENDCHAR
STARTCHAR eight
ENCODING 56
SWIDTH 666 0
DWIDTH 16 0
BBX 13 17 2 0
BITMAP
0F80
3FE0
38E0
7070
7070
7870
3EE0
1FC0
3FC0
73E0
E0F0
E078
E038
F038
7870
3FF0
0FC0
ENDCHAR
STARTCHAR nine
ENCODING 57
SWIDTH 666 0
DWIDTH 16 0
BBX 13 17 2 0
BITMAP
0FC0
3FF0
7870
7038
E038
E038
E038
E078
70F8
7FF8
1F70
0070
00E0
00E0
01C0
0380
0700
ENDCHAR
STARTCHAR colon
ENCODING 58
SWIDTH 416 0
DWIDTH 10 0
BBX 4 12 3 0
BITMAP
60
F0
F0
60
00
00
00
00
60
F0
F0
60
ENDCHAR
STARTCHAR semicolon
ENCODING 59
SWIDTH 416 0
DWIDTH 10 0
BBX 5 16 3 -4
BITMAP
30
78
78
30
00
00
00
00
60
F0
F0
E0
E0
C0
C0
80
ENDCHAR
STARTCHAR less
ENCODING 60
SWIDTH 458 0
DWIDTH 11 0
BBX 8 12 1 0
BITMAP
07
0E
1C
38
70
E0
E0
70
38
1C
0E
07
ENDCHAR
STARTCHAR equal
ENCODING 61
SWIDTH 500 0
DWIDTH 12 0
BBX 10 8 1 2
BITMAP
FFC0
FFC0
0000
0000
0000
0000
FFC0
FFC0
ENDCHAR
STARTCHAR greater
ENCODING 62
SWIDTH 458 0
DWIDTH 11 0
BBX 8 12 2 0
BITMAP
E0
70
38
1C
0E
07
07
0E
1C
38
70
E0
ENDCHAR
STARTCHAR question
ENCODING 63
SWIDTH 541 0
DWIDTH 13 0
BBX 12 18 1 0
BITMAP
1F80
7FE0
70E0
E070
E070
0070
0070
00E0
01C0
0380
0700
0700
0F00
0000
0600
0F00
0F00
0600
ENDCHAR
STARTCHAR at
ENCODING 64
SWIDTH 916 0
DWIDTH 22 0
BBX 21 21 1 -3
BITMAP
01FC00
07FF00
0F07C0
3C00E0
300070
700030
607E38
E1FE18
C38E18
C30E18
C70E18
C70E18
C70E18
C70E38
E39E30
63F7F0
70E3C0
380000
1E0000
0FFF00
03F800
ENDCHAR
STARTCHAR A
ENCODING 65
SWIDTH 666 0
DWIDTH 16 0
BBX 15 17 1 0
BITMAP
0380
0380
07C0
07C0
06C0
0EE0
0CE0
1C70
1C70
1870
3838
3FF8
7FFC
701C
701C
E00E
E00E
ENDCHAR
STARTCHAR B
ENCODING 66
SWIDTH 583 0
DWIDTH 14 0
BBX 12 17 2 0
BITMAP
FF00
FFC0
E1C0
E0E0
E0E0
E0E0
E1C0
FF80
FFC0
E1E0
E0E0
E070
E070
E070
E0E0
FFE0
FF80
ENDCHAR
STARTCHAR C
ENCODING 67
SWIDTH 708 0
DWIDTH 17 0
BBX 14 17 2 0
BITMAP
03F0
0FFC
3E1C
3800
7000
7000
E000
E000
E000
E000
E000
7000
7000
3800
3E1C
0FFC
03F0
ENDCHAR
STARTCHAR D
ENCODING 68
SWIDTH 708 0
DWIDTH 17 0
BBX 14 17 2 0
BITMAP
FF00
FFC0
E1F0
E070
E038
E038
E01C
E01C
E01C
E01C
E01C
E038
E038
E070
E1F0
FFC0
FF00
ENDCHAR
STARTCHAR E
ENCODING 69
SWIDTH 583 0
DWIDTH 14 0
BBX 11 17 2 0
BITMAP
FFC0
FFC0
E000
E000
E000
E000
E000
FF80
FF80
E000
E000
E000
E000
E000
E000
FFE0
FFE0
ENDCHAR
STARTCHAR F
ENCODING 70
SWIDTH 500 0
DWIDTH 12 0
BBX 10 17 2 0
BITMAP
FFC0
FFC0
E000
E000
E000
E000
E000
FF80
FF80
E000
E000
E000
E000
E000
E000
E000
E000
ENDCHAR
STARTCHAR G
ENCODING 71
SWIDTH 750 0
DWIDTH 18 0
BBX 14 17 2 0
BITMAP
03E0
0FF8
3E30
3800
7000
7000
E000
E0FC
E0FC
E01C
E01C
701C
701C
381C
3E1C
0FFC
03FC
ENDCHAR
STARTCHAR H
ENCODING 72
SWIDTH 625 0
DWIDTH 15 0
BBX 13 17 2 0
BITMAP
E038
E038
E038
E038
E038
E038
E038
FFF8
FFF8
E038
E038
E038
E038
E038
E038
E038
E038
ENDCHAR
STARTCHAR I
ENCODING 73
SWIDTH 375 0
DWIDTH 9 0
BBX 3 17 4 0
BITMAP
E0
E0
E0
E0
E0
E0
E0
E0
E0
E0
E0
E0
E0
E0
E0
E0
E0
ENDCHAR
STARTCHAR J
ENCODING 74
SWIDTH 458 0
DWIDTH 11 0
BBX 9 17 0 0
BITMAP
0380
0380
0380
0380
0380
0380
0380
0380
0380
0380
0380
0380
0380
C380
E700
FF00
3C00
ENDCHAR
STARTCHAR K
ENCODING 75
SWIDTH 708 0
DWIDTH 17 0
BBX 14 17 2 0
BITMAP
E070
E0E0
E1C0
E380
E700
EE00
FC00
F800
FC00
FE00
EF00
E780
E3C0
E1E0
E0F0
E078
E03C
ENDCHAR
STARTCHAR L
ENCODING 76
SWIDTH 458 0
DWIDTH 11 0
BBX 9 17 2 0
BITMAP
E000
E000
E000
E000
E000
E000
E000
E000
E000
E000
E000
E000
E000
E000
E000
FF80
FF80
ENDCHAR
STARTCHAR M
ENCODING 77
SWIDTH 833 0
DWIDTH 20 0
BBX 16 17 2 0
BITMAP
C003
E007
E007
F00F
F00F
F81F
F81F
FC3F
EC37
EE77
E667
E7E7
E3C7
E3C7
E187
E187
E007
ENDCHAR
STARTCHAR N
ENCODING 78
SWIDTH 625 0
DWIDTH 15 0
BBX 12 17 2 0
BITMAP
E070
E070
F070
F070
F870
F870
FC70
EC70
EE70
E670
E770
E370
E3F0
E1F0
E1F0
E0F0
E070
ENDCHAR
STARTCHAR O
ENCODING 79
SWIDTH 833 0
DWIDTH 20 0
BBX 17 17 2 0
BITMAP
03E000
0FF800
3E3E00
380E00
700700
700700
E00380
E00380
E00380
E00380
E00380
700700
700700
380E00
3E3E00
0FF800
03E000
ENDCHAR
STARTCHAR P
ENCODING 80
SWIDTH 583 0
DWIDTH 14 0
BBX 12 17 2 0
BITMAP
FF00
FFC0
E1E0
E0E0
E070
E070
E070
E070
E0E0
E1E0
FFC0
FF00
E000
E000
E000
E000
E000
ENDCHAR
STARTCHAR Q
ENCODING 81
SWIDTH 875 0
DWIDTH 21 0
BBX 19 17 2 0
BITMAP
03E000
0FF800
3E3E00
380E00
700700
700700
E00380
E00380
E3E380
EFF380
FC7B80
783F80
701F00
380F00
3E3F80
0FFBC0
03E1E0
ENDCHAR
STARTCHAR R
ENCODING 82
SWIDTH 666 0
DWIDTH 16 0
BBX 14 17 2 0
BITMAP
FF00
FFC0
E1E0
E0E0
E070
E070
E070
E0E0
E1E0
FFC0
FF00
E780
E3C0
E1E0
E0F0
E078
E03C
ENDCHAR
STARTCHAR S
ENCODING 83
SWIDTH 583 0
DWIDTH 14 0
BBX 13 17 1 0
BITMAP
0F80
3FE0
38E0
7070
7000
3800
3E00
1F80
07E0
01F0
0078
0038
6038
F038
7870
3FF0
0FC0
ENDCHAR
STARTCHAR T
ENCODING 84
SWIDTH 583 0
DWIDTH 14 0
BBX 13 17 1 0
BITMAP
FFF8
FFF8
0700
0700
0700
0700
0700
0700
0700
0700
0700
0700
0700
0700
0700
0700
0700
ENDCHAR
STARTCHAR U
ENCODING 85
SWIDTH 666 0
DWIDTH 16 0
BBX 13 17 2 0
BITMAP
E038
E038
E038
E038
E038
E038
E038
E038
E038
E038
E038
E038
E038
7070
78F0
3FE0
0F80
ENDCHAR
STARTCHAR V
ENCODING 86
SWIDTH 666 0
DWIDTH 16 0
BBX 15 17 1 0
BITMAP
F00E
700E
700C
380C
381C
3818
1C18
1C38
1C30
0E70
0E60
0E60
07E0
07C0
07C0
0380
0380
ENDCHAR
STARTCHAR W
ENCODING 87
SWIDTH 916 0
DWIDTH 22 0
BBX 21 17 1 0
BITMAP
E02018
E07018
E07038
707030
70F830
70F870
70F860
38D860
39DCE0
399CC0
399CC0
1F8DC0
1F0F80
1F0F80
0F0F80
0E0700
0E0700
ENDCHAR
STARTCHAR X
ENCODING 88
SWIDTH 666 0
DWIDTH 16 0
BBX 13 17 2 0
BITMAP
E038
F038
7070
38E0
38E0
1DC0
1F80
0F80
0700
0F80
0F80
1DC0
39E0
38E0
7070
E078
E038
ENDCHAR
STARTCHAR Y
ENCODING 89
SWIDTH 583 0
DWIDTH 14 0
BBX 14 17 0 0
BITMAP
E01C
701C
7038
3838
1C70
1CE0
0EE0
07C0
07C0
0380
0380
0380
0380
0380
0380
0380
0380
ENDCHAR
STARTCHAR Z
ENCODING 90
SWIDTH 625 0
DWIDTH 15 0
BBX 13 17 2 0
BITMAP
7FF0
7FE0
01E0
01C0
03C0
0380
0780
0700
0F00
0E00
1E00
1C00
3C00
3800
7800
7FF8
FFF8
ENDCHAR
STARTCHAR bracketleft
ENCODING 91
SWIDTH 416 0
DWIDTH 10 0
BBX 5 22 4 -4
BITMAP
F8
E0
E0
E0
E0
E0
E0
E0
E0
E0
E0
E0
E0
E0
E0
E0
E0
E0
E0
E0
E0
F8
ENDCHAR
STARTCHAR backslash
ENCODING 92
SWIDTH 541 0
DWIDTH 13 0
BBX 13 21 0 -2
BITMAP
E000
6000
7000
3000
3800
1800
1C00
0C00
0E00
0600
0700
0300
0380
0180
01C0
00C0
00E0
0060
0070
0030
0038
ENDCHAR
STARTCHAR bracketright
ENCODING 93
SWIDTH 416 0
DWIDTH 10 0
BBX 5 22 1 -4
BITMAP
F8
38
38
38
38
38
38
38
38
38
38
38
38
38
38
38
38
38
38
38
38
F8
ENDCHAR
STARTCHAR asciicircum
ENCODING 94
SWIDTH 625 0
DWIDTH 15 0
BBX 12 6 2 12
BITMAP
0600
0F00
1F80
39C0
70E0
E070
ENDCHAR
STARTCHAR underscore
ENCODING 95
SWIDTH 666 0
DWIDTH 16 0
BBX 16 2 0 -5
BITMAP
FFFF
FFFF
ENDCHAR
STARTCHAR a
ENCODING 97
SWIDTH 541 0
DWIDTH 13 0
BBX 10 13 2 0
BITMAP
3F00
3F80
01C0
01C0
0FC0
3FC0
71C0
E1C0
E1C0
E1C0
F3C0
7FC0
3DC0
ENDCHAR
STARTCHAR b
ENCODING 98
SWIDTH 625 0
DWIDTH 15 0
BBX 12 18 2 0
BITMAP
E000
E000
E000
E000
E000
EF00
FFC0
F1E0
E0E0
E070
E070
E070
E070
E070
E0E0
F1E0
FFC0
EF00
ENDCHAR
STARTCHAR c
ENCODING 99
SWIDTH 500 0
DWIDTH 12 0
BBX 10 13 2 0
BITMAP
0F80
3FC0
7880
7000
E000
E000
E000
E000
E000
7000
7880
3FC0
0F80
ENDCHAR
STARTCHAR d
ENCODING 100
SWIDTH 625 0
DWIDTH 15 0
BBX 12 18 2 0
BITMAP
0070
0070
0070
0070
0070
0F70
3FF0
78F0
7070
E070
E070
E070
E070
E070
7070
78F0
3FF0
0F70
ENDCHAR
STARTCHAR e
ENCODING 101
SWIDTH 583 0
DWIDTH 14 0
BBX 12 13 2 0
BITMAP
0F80
3FE0
78E0
7070
E070
E1F0
EFC0
FE00
F800
7000
7860
3FE0
0F80
ENDCHAR
STARTCHAR f
ENCODING 102
SWIDTH 458 0
DWIDTH 11 0
BBX 11 18 1 0
BITMAP
07C0
1FE0
1C40
3800
3800
FF80
FF80
3800
3800
3800
3800
3800
3800
3800
3800
3800
3800
3800
ENDCHAR
STARTCHAR g
ENCODING 103
SWIDTH 625 0
DWIDTH 15 0
BBX 12 18 2 -5
BITMAP
07F0
1FF0
3C70
7070
7070
E070
E070
E070
E0F0
E0F0
73F0
7F70
1E70
0070
0070
00E0
1FE0
0F80
ENDCHAR
STARTCHAR h
ENCODING 104
SWIDTH 583 0
DWIDTH 14 0
BBX 11 17 2 0
BITMAP
E000
E000
E000
E000
E000
EF00
FFC0
F1C0
E0E0
E0E0
E0E0
E0E0
E0E0
E0E0
E0E0
E0E0
E0E0
ENDCHAR
STARTCHAR i
ENCODING 105
SWIDTH 291 0
DWIDTH 7 0
BBX 3 18 2 0
BITMAP
E0
E0
E0
00
00
20
60
E0
E0
E0
E0
E0
E0
E0
E0
E0
E0
E0
ENDCHAR
STARTCHAR j
ENCODING 106
SWIDTH 333 0
DWIDTH 8 0
BBX 7 23 0 -5
BITMAP
0E
0E
0E
00
00
02
06
0E
0E
0E
0E
0E
0E
0E
0E
0E
0E
0E
0E
0E
1C
FC
F0
ENDCHAR
STARTCHAR k
ENCODING 107
SWIDTH 583 0
DWIDTH 14 0
BBX 12 17 2 0
BITMAP
E000
E000
E000
E000
E000
E1C0
E380
E700
EE00
FC00
FC00
FE00
EF00
E780
E3C0
E1E0
E0F0
ENDCHAR
STARTCHAR l
ENCODING 108
SWIDTH 375 0
DWIDTH 9 0
BBX 7 18 2 0
BITMAP
E0
E0
E0
E0
E0
E0
E0
E0
E0
E0
E0
E0
E0
E0
E0
70
7E
1E
ENDCHAR
STARTCHAR m
ENCODING 109
SWIDTH 916 0
DWIDTH 22 0
BBX 19 13 2 0
BITMAP
EF0F00
FFDFC0
F1F1C0
E0E0E0
E0E0E0
E0E0E0
E0E0E0
E0E0E0
E0E0E0
E0E0E0
E0E0E0
E0E0E0
E0E0E0
ENDCHAR
STARTCHAR n
ENCODING 110
SWIDTH 583 0
DWIDTH 14 0
BBX 11 13 2 0
BITMAP
EF00
FFC0
F1C0
E0E0
E0E0
E0E0
E0E0
E0E0
E0E0
E0E0
E0E0
E0E0
E0E0
ENDCHAR
STARTCHAR o
ENCODING 111
SWIDTH 666 0
DWIDTH 16 0
BBX 13 13 2 0
BITMAP
0F80
3FE0
78F0
7070
E038
E038
E038
E038
E038
7070
78F0
3FE0
0F80
ENDCHAR
STARTCHAR p
ENCODING 112
SWIDTH 625 0
DWIDTH 15 0
BBX 12 18 2 -5
BITMAP
EF00
FFC0
F1E0
E0E0
E070
E070
E070
E070
E070
E0E0
F1E0
FFC0
EF00
E000
E000
E000
E000
E000
ENDCHAR
STARTCHAR q
ENCODING 113
SWIDTH 625 0
DWIDTH 15 0
BBX 12 18 2 -5
BITMAP
0F70
3FF0
78F0
7070
E070
E070
E070
E070
E070
7070
78F0
3FF0
0F70
0070
0070
0070
0070
0070
ENDCHAR
STARTCHAR r
ENCODING 114
SWIDTH 458 0
DWIDTH 11 0
BBX 9 13 2 0
BITMAP
EF00
FF80
F300
E000
E000
E000
E000
E000
E000
E000
E000
E000
E000
ENDCHAR
STARTCHAR s
ENCODING 115
SWIDTH 500 0
DWIDTH 12 0
BBX 10 13 1 0
BITMAP
1F00
3F80
7180
7000
7800
3E00
1F00
0780
03C0
41C0
F1C0
7F80
1F00
ENDCHAR
STARTCHAR t
ENCODING 116
SWIDTH 416 0
DWIDTH 10 0
BBX 9 18 1 0
BITMAP
0800
1800
3800
3800
3800
FF00
FF00
3800
3800
3800
3800
3800
3800
3800
3800
1C00
1F80
0780
ENDCHAR
STARTCHAR u
ENCODING 117
SWIDTH 583 0
DWIDTH 14 0
BBX 11 13 2 0
BITMAP
E0E0
E0E0
E0E0
E0E0
E0E0
E0E0
E0E0
E0E0
E0E0
E0E0
71E0
7FE0
1EE0
ENDCHAR
STARTCHAR v
ENCODING 118
SWIDTH 541 0
DWIDTH 13 0
BBX 12 13 1 0
BITMAP
E030
7070
7060
3860
38E0
38C0
1CC0
1DC0
1D80
0F80
0F00
0700
0600
ENDCHAR
STARTCHAR w
ENCODING 119
SWIDTH 833 0
DWIDTH 20 0
BBX 19 13 1 0
BITMAP
E04060
E0E0E0
70E0C0
70E0C0
71F1C0
39F180
39B180
3BBB80
1B1B00
1F1F00
1F1F00
0E0E00
0E0E00
ENDCHAR
STARTCHAR x
ENCODING 120
SWIDTH 541 0
DWIDTH 13 0
BBX 12 13 1 0
BITMAP
F0E0
70C0
39C0
1D80
1F80
0F00
0F00
1F80
1B80
39C0
30E0
70F0
E070
ENDCHAR
STARTCHAR y
ENCODING 121
SWIDTH 583 0
DWIDTH 14 0
BBX 13 18 1 -5
BITMAP
E018
E038
7030
7070
3860
3860
1CC0
1CC0
0FC0
0F80
0780
0700
0700
0600
0E00
0E00
1C00
1C00
ENDCHAR
STARTCHAR z
ENCODING 122
SWIDTH 541 0
DWIDTH 13 0
BBX 11 13 2 0
BITMAP
7FC0
7FC0
0380
0700
0700
0E00
1C00
1C00
3800
7000
7000
FFE0
FFE0
ENDCHAR
STARTCHAR braceleft
ENCODING 123
SWIDTH 416 0
DWIDTH 10 0
BBX 8 22 1 -4
BITMAP
0F
1C
1C
1C
1C
1C
1C
1C
1C
38
F0
38
1C
1C
1C
1C
1C
1C
1C
1C
1C
0F
ENDCHAR
STARTCHAR bar
ENCODING 124
SWIDTH 416 0
DWIDTH 10 0
BBX 2 22 4 -4
BITMAP
C0
C0
C0
C0
C0
C0
C0
C0
C0
C0
C0
C0
C0
C0
C0
C0
C0
C0
C0
C0
C0
C0
ENDCHAR
STARTCHAR braceright
ENCODING 125
SWIDTH 416 0
DWIDTH 10 0
BBX 8 22 1 -4
BITMAP
F0
38
38
38
38
38
38
38
38
1C
0F
1C
38
38
38
38
38
38
38
38
38
F0
ENDCHAR
STARTCHAR Euro
ENCODING 164
SWIDTH 750 0
DWIDTH 18 0
BBX 16 18 0 0
BITMAP
00FC
03FF
0F87
0E01
1C00
1C00
FFFE
FFFC
3800
FFF8
FFF0
3800
1C00
1C00
0E00
0F87
03FF
00FC
ENDCHAR
STARTCHAR degree
ENCODING 176
SWIDTH 375 0
DWIDTH 9 0
BBX 6 7 1 11
BITMAP
78
FC
CC
CC
CC
FC
78
ENDCHAR
STARTCHAR Agrave
ENCODING 192
SWIDTH 666 0
DWIDTH 16 0
BBX 15 22 1 0
BITMAP
0E00
0700
0300
0000
0000
0380
0380
07C0
07C0
06E0
0EE0
0CE0
1C70
1C70
1870
3838
3FF8
7FFC
701C
701C
E00E
E00E
ENDCHAR
STARTCHAR Acircumflex
ENCODING 194
SWIDTH 666 0
DWIDTH 16 0
BBX 15 22 1 0
BITMAP
0380
07C0
0C60
0000
0000
0380
0380
07C0
07C0
06E0
0EE0
0CE0
1C70
1C70
1870
3838
3FF8
7FFC
701C
701C
E00E
E00E
ENDCHAR
STARTCHAR Ccedilla
ENCODING 199
SWIDTH 708 0
DWIDTH 17 0
BBX 14 22 2 -5
BITMAP
03F0
0FFC
3E1C
3800
7000
7000
E000
E000
E000
E000
E000
7000
7000
3800
3E1C
0FFC
03F0
03E0
0070
0030
03F0
03E0
ENDCHAR
STARTCHAR Egrave
ENCODING 200
SWIDTH 583 0
DWIDTH 14 0
BBX 11 22 2 0
BITMAP
3800
1C00
0C00
0000
0000
FFC0
FFC0
E000
E000
E000
E000
E000
FF80
FF80
E000
E000
E000
E000
E000
E000
FFE0
FFE0
ENDCHAR
STARTCHAR Eacute
ENCODING 201
SWIDTH 583 0
DWIDTH 14 0
BBX 11 22 2 0
BITMAP
0700
0E00
0C00
0000
0000
FFC0
FFC0
E000
E000
E000
E000
E000
FF80
FF80
E000
E000
E000
E000
E000
E000
FFE0
FFE0
ENDCHAR
STARTCHAR Ecircumflex
ENCODING 202
SWIDTH 583 0
DWIDTH 14 0
BBX 11 22 2 0
BITMAP
0E00
1F00
3180
0000
0000
FFC0
FFC0
E000
E000
E000
E000
E000
FF80
FF80
E000
E000
E000
E000
E000
E000
FFE0
FFE0
ENDCHAR
STARTCHAR Edieresis
ENCODING 203
SWIDTH 583 0
DWIDTH 14 0
BBX 11 22 2 0
BITMAP
6300
6300
2100
0000
0000
FFC0
FFC0
E000
E000
E000
E000
E000
FF80
FF80
E000
E000
E000
E000
E000
E000
FFE0
FFE0
ENDCHAR
STARTCHAR Icircumflex
ENCODING 206
SWIDTH 375 0
DWIDTH 9 0
BBX 7 22 2 0
BITMAP
38
7C
C6
00
00
38
38
38
38
38
38
38
38
38
38
38
38
38
38
38
38
38
ENDCHAR
STARTCHAR Idieresis
ENCODING 207
SWIDTH 375 0
DWIDTH 9 0
BBX 7 22 2 0
BITMAP
C6
C6
42
00
00
38
38
38
38
38
38
38
38
38
38
38
38
38
38
38
38
38
ENDCHAR
STARTCHAR Ocircumflex
ENCODING 212
SWIDTH 833 0
DWIDTH 20 0
BBX 17 22 2 0
BITMAP
00C000
01E000
033000
000000
000000
03E000
0FF800
3E3E00
380E00
700700
700700
E00380
E00380
E00380
E00380
E00380
700700
700700
380E00
3E3E00
0FF800
03E000
ENDCHAR
STARTCHAR Ugrave
ENCODING 217
SWIDTH 666 0
DWIDTH 16 0
BBX 13 22 2 0
BITMAP
1C00
0E00
0600
0000
0000
E038
E038
E038
E038
E038
E038
E038
E038
E038
E038
E038
E038
E038
7070
78F0
3FE0
0F80
ENDCHAR
STARTCHAR Ucircumflex
ENCODING 219
SWIDTH 666 0
DWIDTH 16 0
BBX 13 22 2 0
BITMAP
0700
0F80
18C0
0000
0000
E038
E038
E038
E038
E038
E038
E038
E038
E038
E038
E038
E038
E038
7070
78F0
3FE0
0F80
ENDCHAR
STARTCHAR Udieresis
ENCODING 220
SWIDTH 666 0
DWIDTH 16 0
BBX 13 22 2 0
BITMAP
18C0
18C0
0840
0000
0000
E038
E038
E038
E038
E038
E038
E038
E038
E038
E038
E038
E038
E038
7070
78F0
3FE0
0F80
ENDCHAR
STARTCHAR agrave
ENCODING 224
SWIDTH 541 0
DWIDTH 13 0
BBX 10 18 2 0
BITMAP
3800
1C00
0C00
0000
0000
3F00
3F80
01C0
01C0
0FC0
3FC0
71C0
E1C0
E1C0
E1C0
F3C0
7FC0
3DC0
ENDCHAR
STARTCHAR acircumflex
ENCODING 226
SWIDTH 541 0
DWIDTH 13 0
BBX 10 18 2 0
BITMAP
0E00
1F00
3180
0000
0000
3F00
3F80
01C0
01C0
0FC0
3FC0
71C0
E1C0
E1C0
E1C0
F3C0
7FC0
3DC0
ENDCHAR
STARTCHAR ccedilla
ENCODING 231
SWIDTH 500 0
DWIDTH 12 0
BBX 10 17 2 -4
BITMAP
0F80
3FC0
7880
7000
E000
E000
E000
E000
E000
7000
7880
3FC0
0F80
0F00
0180
1F80
1F00
ENDCHAR
STARTCHAR egrave
ENCODING 232
SWIDTH 583 0
DWIDTH 14 0
BBX 12 18 2 0
BITMAP
1C00
0E00
0600
0000
0000
0F80
3FE0
78E0
7070
E070
E1F0
EFC0
FE00
F800
7000
7860
3FE0
0F80
ENDCHAR
STARTCHAR eacute
ENCODING 233
SWIDTH 583 0
DWIDTH 14 0
BBX 12 18 2 0
BITMAP
0380
0700
0600
0000
0000
0F80
3FE0
78E0
7070
E070
E1F0
EFC0
FE00
F800
7000
7860
3FE0
0F80
ENDCHAR
STARTCHAR ecircumflex
ENCODING 234
SWIDTH 583 0
DWIDTH 14 0
BBX 12 18 2 0
BITMAP
0700
0F80
18C0
0000
0000
0F80
3FE0
78E0
7070
E070
E1F0
EFC0
FE00
F800
7000
7860
3FE0
0F80
ENDCHAR
STARTCHAR edieresis
ENCODING 235
SWIDTH 583 0
DWIDTH 14 0
BBX 12 19 2 0
BITMAP
18C0
18C0
0840
0000
0000
0000
0F80
3FE0
78E0
7070
E070
E1F0
EFC0
FE00
F800
7000
78E0
3FE0
0F80
ENDCHAR
STARTCHAR icircumflex
ENCODING 238
SWIDTH 291 0
DWIDTH 7 0
BBX 7 18 1 0
BITMAP
38
7C
C6
00
00
08
18
38
38
38
38
38
38
38
38
38
38
38
ENDCHAR
STARTCHAR idieresis
ENCODING 239
SWIDTH 291 0
DWIDTH 7 0
BBX 7 18 1 0
BITMAP
C6
C6
42
00
00
08
18
38
38
38
38
38
38
38
38
38
38
38
ENDCHAR
STARTCHAR ocircumflex
ENCODING 244
SWIDTH 666 0
DWIDTH 16 0
BBX 13 18 2 0
BITMAP
0700
0F80
18C0
0000
0000
0F80
3FE0
78F0
7070
E038
E038
E038
E038
E038
7070
78F0
3FE0
0F80
ENDCHAR
STARTCHAR ugrave
ENCODING 249
SWIDTH 583 0
DWIDTH 14 0
BBX 11 18 2 0
BITMAP
3800
1C00
0C00
0000
0000
E0E0
E0E0
E0E0
E0E0
E0E0
E0E0
E0E0
E0E0
E0E0
E0E0
71E0
7FE0
1E60
ENDCHAR
STARTCHAR ucircumflex
ENCODING 251
SWIDTH 583 0
DWIDTH 14 0
BBX 11 18 2 0
BITMAP
0E00
1F00
3180
0000
0000
E0E0
E0E0
E0E0
E0E0
E0E0
E0E0
E0E0
E0E0
E0E0
E0E0
71E0
7FE0
1EE0
ENDCHAR
STARTCHAR udieresis
ENCODING 252
SWIDTH 583 0
DWIDTH 14 0
BBX 11 18 2 0
BITMAP
3180
3180
1080
0000
0000
E0E0
E0E0
E0E0
E0E0
E0E0
E0E0
E0E0
E0E0
E0E0
E0E0
71E0
7FE0
1EE0
ENDCHAR
ENDFONT
